<svg xmlns="http://www.w3.org/2000/svg" width="354.5" height="316.688" viewBox="0 0 354.5 316.688">
  <defs>
    <style>
      .cls-1 {
        fill: #fff;
        fill-rule: evenodd;
      }
    </style>
  </defs>
  <path id="logo" class="cls-1" d="M141.253,443.007l13.45,18.112h5.346V434.036h-5.5v17.79l-13.321-17.79h-5.47v27.083h5.491V443.007Zm132.188-8.971H250.5v5.747h8.656v21.336h5.827V439.783h8.458v-5.747Zm-1.665,92.031h11.372v-51.1H271.776v51.1Zm-59.361-83.06,13.448,18.112h5.347V434.036h-5.5v17.79l-13.321-17.79h-5.469v27.083h5.492V443.007Zm25.68,69.034-10.826-37.073H218.2l-10.765,36.937-9.828-36.937H186.483l14.459,51.1h12.279l9.528-33.667,9.465,33.667h12.331l14.536-51.1h-11.12Zm-81.122-17.013c-7.384-1.212-12.152-2.58-12.152-6.018,0-3.974,5.308-5.5,12.433-5.5,6.624,0,13.267,2.525,15.636,3.522l3.633-8.847a57.3,57.3,0,0,0-19.789-3.934c-11.041,0-22.772,5.384-22.772,15.363,0,8.092,5.706,12.224,20.354,14.745,10.327,1.776,16.014,2.756,15.854,7.195-0.091,2.447-1.981,6.548-13.622,6.548a36.118,36.118,0,0,1-18.252-4.773l-4.837,8.731a50.083,50.083,0,0,0,22.355,5.411c16.256,0,24.849-5.631,24.849-16.285,0-6.175-2.084-12.609-23.69-16.156M186.5,434.036h-6.026v27.083H186.5V434.036Zm174.564,27.083V434.036h-5.5v17.79l-13.322-17.79h-5.469v27.083h5.49V443.007l13.452,18.112h5.345ZM314.33,456.1H298.765v-6.352h14.393v-4.9H298.765v-5.844H314.33v-4.972l-21.062.009v27.074l21.062-.01V456.1ZM458.46,519.92H460.8v6.147h1.479V519.92h2.285v-1.457H458.46v1.457Zm-17.424-86.8a14.454,14.454,0,1,0,14.425,14.454,14.457,14.457,0,0,0-14.425-14.454m0,22.884a8.431,8.431,0,1,1,8.414-8.431,8.433,8.433,0,0,1-8.414,8.431M472.3,518.463l-1.918,5.563-1.913-5.563h-2.11v7.6h1.359V520.23L469.705,526l0.024,0.068h1.312l0.022-.068,1.987-5.769v5.837h1.359v-7.6H472.3Zm-29.42-23.357H419.015V474.968H408.448v51.1h10.567V505.684h23.866v20.383h10.576v-51.1H442.881v20.138Zm-147.268-9.294h16.33v40.255h10.994V485.812H338.9V474.968H295.613v10.844Zm78.811-1.152a16.388,16.388,0,0,1,14.028,7.933l8.313-7.229a27.272,27.272,0,1,0,0,30.413l-8.313-7.229a16.388,16.388,0,0,1-14.028,7.933,15.913,15.913,0,1,1,0-31.821m20.747-50.624h-11.2v27.083h11.2a13.547,13.547,0,1,0,0-27.083m0.275,21.392h-5.912v-15.7h5.912a7.851,7.851,0,0,1,0,15.7M206.59,214.041H166.705a46.791,46.791,0,0,0-46.792,46.79v88.9a46.789,46.789,0,0,0,46.792,46.789H206.59a1.337,1.337,0,0,0,1.339-1.337V215.377A1.337,1.337,0,0,0,206.59,214.041Zm-13.374,167.77H166.705a32.073,32.073,0,0,1-32.077-32.078v-88.9a32.07,32.07,0,0,1,32.077-32.078h26.511V381.811ZM165.48,251.628a17.158,17.158,0,1,1-17.157,17.157A17.156,17.156,0,0,1,165.48,251.628Zm90.126-37.587H227.374a1.186,1.186,0,0,0-1.187,1.19V395.185a1.336,1.336,0,0,0,1.336,1.337h28.083a46.789,46.789,0,0,0,46.79-46.789v-88.9A46.791,46.791,0,0,0,255.606,214.041Zm6.682,118.815a18.45,18.45,0,1,1,18.449-18.45A18.451,18.451,0,0,1,262.288,332.856Zm70.848,63.666V365.153c3.241-2.664,15.5-13.207,28.462-24.353,11.655-10.026,23.3-20.087,35.176-29.849,8.952-7.359,25.948-20.866,26.49-34.1,0.636-15.566-10.4-25.656-26.889-25.656-9.825,0-21.364,5.46-28.341,11.4-7.092,6.043-15.956,13.618-15.956,13.618l-25.835-28.006c21.934-24.582,45.511-37.044,70.09-37.044,52.378-1.3,91.844,57.072,52.009,102.841a392.872,392.872,0,0,1-47.734,44.117H469v38.394H333.136Z" transform="translate(-119.906 -211.156)"/>
</svg>
